<?xml version="1.0" standalone="no"?>
<svg xmlns="http://www.w3.org/2000/svg" width="1024" height="1024" viewBox="0 0 1024 1024"><defs><clipPath id="clip-path-dot-color"><rect x="62" y="386" width="36" height="36" transform="rotate(0,80,404)"/><rect x="62" y="494" width="36" height="36" transform="rotate(0,80,512)"/><rect x="62" y="602" width="36" height="36" transform="rotate(0,80,620)"/><rect x="98" y="422" width="36" height="36" transform="rotate(0,116,440)"/><rect x="98" y="458" width="36" height="36" transform="rotate(0,116,476)"/><rect x="98" y="494" width="36" height="36" transform="rotate(0,116,512)"/><rect x="98" y="566" width="36" height="36" transform="rotate(0,116,584)"/><rect x="98" y="602" width="36" height="36" transform="rotate(0,116,620)"/><rect x="134" y="350" width="36" height="36" transform="rotate(0,152,368)"/><rect x="134" y="386" width="36" height="36" transform="rotate(0,152,404)"/><rect x="134" y="422" width="36" height="36" transform="rotate(0,152,440)"/><rect x="134" y="494" width="36" height="36" transform="rotate(0,152,512)"/><rect x="134" y="602" width="36" height="36" transform="rotate(0,152,620)"/><rect x="170" y="386" width="36" height="36" transform="rotate(0,188,404)"/><rect x="170" y="422" width="36" height="36" transform="rotate(0,188,440)"/><rect x="170" y="458" width="36" height="36" transform="rotate(0,188,476)"/><rect x="170" y="566" width="36" height="36" transform="rotate(0,188,584)"/><rect x="206" y="422" width="36" height="36" transform="rotate(0,224,440)"/><rect x="206" y="566" width="36" height="36" transform="rotate(0,224,584)"/><rect x="206" y="602" width="36" height="36" transform="rotate(0,224,620)"/><rect x="206" y="638" width="36" height="36" transform="rotate(0,224,656)"/><rect x="242" y="386" width="36" height="36" transform="rotate(0,260,404)"/><rect x="242" y="530" width="36" height="36" transform="rotate(0,260,548)"/><rect x="242" y="566" width="36" height="36" transform="rotate(0,260,584)"/><rect x="242" y="602" width="36" height="36" transform="rotate(0,260,620)"/><rect x="278" y="350" width="36" height="36" transform="rotate(0,296,368)"/><rect x="278" y="422" width="36" height="36" transform="rotate(0,296,440)"/><rect x="278" y="494" width="36" height="36" transform="rotate(0,296,512)"/><rect x="278" y="566" width="36" height="36" transform="rotate(0,296,584)"/><rect x="278" y="638" width="36" height="36" transform="rotate(0,296,656)"/><rect x="314" y="350" width="36" height="36" transform="rotate(0,332,368)"/><rect x="314" y="386" width="36" height="36" transform="rotate(0,332,404)"/><rect x="314" y="422" width="36" height="36" transform="rotate(0,332,440)"/><rect x="314" y="494" width="36" height="36" transform="rotate(0,332,512)"/><rect x="314" y="530" width="36" height="36" transform="rotate(0,332,548)"/><rect x="314" y="566" width="36" height="36" transform="rotate(0,332,584)"/><rect x="314" y="602" width="36" height="36" transform="rotate(0,332,620)"/><rect x="350" y="62" width="36" height="36" transform="rotate(0,368,80)"/><rect x="350" y="98" width="36" height="36" transform="rotate(0,368,116)"/><rect x="350" y="134" width="36" height="36" transform="rotate(0,368,152)"/><rect x="350" y="206" width="36" height="36" transform="rotate(0,368,224)"/><rect x="350" y="242" width="36" height="36" transform="rotate(0,368,260)"/><rect x="350" y="278" width="36" height="36" transform="rotate(0,368,296)"/><rect x="350" y="314" width="36" height="36" transform="rotate(0,368,332)"/><rect x="350" y="350" width="36" height="36" transform="rotate(0,368,368)"/><rect x="350" y="422" width="36" height="36" transform="rotate(0,368,440)"/><rect x="350" y="458" width="36" height="36" transform="rotate(0,368,476)"/><rect x="350" y="530" width="36" height="36" transform="rotate(0,368,548)"/><rect x="350" y="674" width="36" height="36" transform="rotate(0,368,692)"/><rect x="350" y="710" width="36" height="36" transform="rotate(0,368,728)"/><rect x="350" y="854" width="36" height="36" transform="rotate(0,368,872)"/><rect x="386" y="62" width="36" height="36" transform="rotate(0,404,80)"/><rect x="386" y="98" width="36" height="36" transform="rotate(0,404,116)"/><rect x="386" y="170" width="36" height="36" transform="rotate(0,404,188)"/><rect x="386" y="314" width="36" height="36" transform="rotate(0,404,332)"/><rect x="386" y="350" width="36" height="36" transform="rotate(0,404,368)"/><rect x="386" y="422" width="36" height="36" transform="rotate(0,404,440)"/><rect x="386" y="458" width="36" height="36" transform="rotate(0,404,476)"/><rect x="386" y="530" width="36" height="36" transform="rotate(0,404,548)"/><rect x="386" y="638" width="36" height="36" transform="rotate(0,404,656)"/><rect x="386" y="674" width="36" height="36" transform="rotate(0,404,692)"/><rect x="386" y="710" width="36" height="36" transform="rotate(0,404,728)"/><rect x="386" y="926" width="36" height="36" transform="rotate(0,404,944)"/><rect x="422" y="98" width="36" height="36" transform="rotate(0,440,116)"/><rect x="422" y="278" width="36" height="36" transform="rotate(0,440,296)"/><rect x="422" y="350" width="36" height="36" transform="rotate(0,440,368)"/><rect x="422" y="386" width="36" height="36" transform="rotate(0,440,404)"/><rect x="422" y="530" width="36" height="36" transform="rotate(0,440,548)"/><rect x="422" y="566" width="36" height="36" transform="rotate(0,440,584)"/><rect x="422" y="854" width="36" height="36" transform="rotate(0,440,872)"/><rect x="422" y="890" width="36" height="36" transform="rotate(0,440,908)"/><rect x="422" y="926" width="36" height="36" transform="rotate(0,440,944)"/><rect x="458" y="98" width="36" height="36" transform="rotate(0,476,116)"/><rect x="458" y="170" width="36" height="36" transform="rotate(0,476,188)"/><rect x="458" y="206" width="36" height="36" transform="rotate(0,476,224)"/><rect x="458" y="242" width="36" height="36" transform="rotate(0,476,260)"/><rect x="458" y="314" width="36" height="36" transform="rotate(0,476,332)"/><rect x="458" y="350" width="36" height="36" transform="rotate(0,476,368)"/><rect x="458" y="458" width="36" height="36" transform="rotate(0,476,476)"/><rect x="458" y="530" width="36" height="36" transform="rotate(0,476,548)"/><rect x="458" y="602" width="36" height="36" transform="rotate(0,476,620)"/><rect x="458" y="638" width="36" height="36" transform="rotate(0,476,656)"/><rect x="458" y="746" width="36" height="36" transform="rotate(0,476,764)"/><rect x="458" y="890" width="36" height="36" transform="rotate(0,476,908)"/><rect x="494" y="134" width="36" height="36" transform="rotate(0,512,152)"/><rect x="494" y="170" width="36" height="36" transform="rotate(0,512,188)"/><rect x="494" y="206" width="36" height="36" transform="rotate(0,512,224)"/><rect x="494" y="278" width="36" height="36" transform="rotate(0,512,296)"/><rect x="494" y="350" width="36" height="36" transform="rotate(0,512,368)"/><rect x="494" y="494" width="36" height="36" transform="rotate(0,512,512)"/><rect x="494" y="530" width="36" height="36" transform="rotate(0,512,548)"/><rect x="494" y="566" width="36" height="36" transform="rotate(0,512,584)"/><rect x="494" y="602" width="36" height="36" transform="rotate(0,512,620)"/><rect x="494" y="638" width="36" height="36" transform="rotate(0,512,656)"/><rect x="494" y="674" width="36" height="36" transform="rotate(0,512,692)"/><rect x="494" y="710" width="36" height="36" transform="rotate(0,512,728)"/><rect x="494" y="746" width="36" height="36" transform="rotate(0,512,764)"/><rect x="494" y="818" width="36" height="36" transform="rotate(0,512,836)"/><rect x="494" y="890" width="36" height="36" transform="rotate(0,512,908)"/><rect x="494" y="926" width="36" height="36" transform="rotate(0,512,944)"/><rect x="530" y="134" width="36" height="36" transform="rotate(0,548,152)"/><rect x="530" y="206" width="36" height="36" transform="rotate(0,548,224)"/><rect x="530" y="350" width="36" height="36" transform="rotate(0,548,368)"/><rect x="530" y="386" width="36" height="36" transform="rotate(0,548,404)"/><rect x="530" y="458" width="36" height="36" transform="rotate(0,548,476)"/><rect x="530" y="494" width="36" height="36" transform="rotate(0,548,512)"/><rect x="530" y="710" width="36" height="36" transform="rotate(0,548,728)"/><rect x="530" y="818" width="36" height="36" transform="rotate(0,548,836)"/><rect x="530" y="926" width="36" height="36" transform="rotate(0,548,944)"/><rect x="566" y="62" width="36" height="36" transform="rotate(0,584,80)"/><rect x="566" y="170" width="36" height="36" transform="rotate(0,584,188)"/><rect x="566" y="206" width="36" height="36" transform="rotate(0,584,224)"/><rect x="566" y="278" width="36" height="36" transform="rotate(0,584,296)"/><rect x="566" y="386" width="36" height="36" transform="rotate(0,584,404)"/><rect x="566" y="422" width="36" height="36" transform="rotate(0,584,440)"/><rect x="566" y="458" width="36" height="36" transform="rotate(0,584,476)"/><rect x="566" y="494" width="36" height="36" transform="rotate(0,584,512)"/><rect x="566" y="530" width="36" height="36" transform="rotate(0,584,548)"/><rect x="566" y="638" width="36" height="36" transform="rotate(0,584,656)"/><rect x="566" y="710" width="36" height="36" transform="rotate(0,584,728)"/><rect x="566" y="746" width="36" height="36" transform="rotate(0,584,764)"/><rect x="566" y="854" width="36" height="36" transform="rotate(0,584,872)"/><rect x="566" y="890" width="36" height="36" transform="rotate(0,584,908)"/><rect x="566" y="926" width="36" height="36" transform="rotate(0,584,944)"/><rect x="602" y="98" width="36" height="36" transform="rotate(0,620,116)"/><rect x="602" y="134" width="36" height="36" transform="rotate(0,620,152)"/><rect x="602" y="170" width="36" height="36" transform="rotate(0,620,188)"/><rect x="602" y="206" width="36" height="36" transform="rotate(0,620,224)"/><rect x="602" y="350" width="36" height="36" transform="rotate(0,620,368)"/><rect x="602" y="386" width="36" height="36" transform="rotate(0,620,404)"/><rect x="602" y="494" width="36" height="36" transform="rotate(0,620,512)"/><rect x="602" y="530" width="36" height="36" transform="rotate(0,620,548)"/><rect x="602" y="602" width="36" height="36" transform="rotate(0,620,620)"/><rect x="602" y="638" width="36" height="36" transform="rotate(0,620,656)"/><rect x="602" y="710" width="36" height="36" transform="rotate(0,620,728)"/><rect x="602" y="782" width="36" height="36" transform="rotate(0,620,800)"/><rect x="602" y="890" width="36" height="36" transform="rotate(0,620,908)"/><rect x="638" y="62" width="36" height="36" transform="rotate(0,656,80)"/><rect x="638" y="278" width="36" height="36" transform="rotate(0,656,296)"/><rect x="638" y="458" width="36" height="36" transform="rotate(0,656,476)"/><rect x="638" y="494" width="36" height="36" transform="rotate(0,656,512)"/><rect x="638" y="530" width="36" height="36" transform="rotate(0,656,548)"/><rect x="638" y="638" width="36" height="36" transform="rotate(0,656,656)"/><rect x="638" y="674" width="36" height="36" transform="rotate(0,656,692)"/><rect x="638" y="710" width="36" height="36" transform="rotate(0,656,728)"/><rect x="638" y="746" width="36" height="36" transform="rotate(0,656,764)"/><rect x="638" y="782" width="36" height="36" transform="rotate(0,656,800)"/><rect x="638" y="818" width="36" height="36" transform="rotate(0,656,836)"/><rect x="674" y="350" width="36" height="36" transform="rotate(0,692,368)"/><rect x="674" y="386" width="36" height="36" transform="rotate(0,692,404)"/><rect x="674" y="422" width="36" height="36" transform="rotate(0,692,440)"/><rect x="674" y="458" width="36" height="36" transform="rotate(0,692,476)"/><rect x="674" y="530" width="36" height="36" transform="rotate(0,692,548)"/><rect x="674" y="602" width="36" height="36" transform="rotate(0,692,620)"/><rect x="674" y="638" width="36" height="36" transform="rotate(0,692,656)"/><rect x="674" y="782" width="36" height="36" transform="rotate(0,692,800)"/><rect x="674" y="818" width="36" height="36" transform="rotate(0,692,836)"/><rect x="674" y="890" width="36" height="36" transform="rotate(0,692,908)"/><rect x="674" y="926" width="36" height="36" transform="rotate(0,692,944)"/><rect x="710" y="350" width="36" height="36" transform="rotate(0,728,368)"/><rect x="710" y="386" width="36" height="36" transform="rotate(0,728,404)"/><rect x="710" y="422" width="36" height="36" transform="rotate(0,728,440)"/><rect x="710" y="566" width="36" height="36" transform="rotate(0,728,584)"/><rect x="710" y="602" width="36" height="36" transform="rotate(0,728,620)"/><rect x="710" y="638" width="36" height="36" transform="rotate(0,728,656)"/><rect x="710" y="710" width="36" height="36" transform="rotate(0,728,728)"/><rect x="710" y="782" width="36" height="36" transform="rotate(0,728,800)"/><rect x="710" y="818" width="36" height="36" transform="rotate(0,728,836)"/><rect x="710" y="890" width="36" height="36" transform="rotate(0,728,908)"/><rect x="710" y="926" width="36" height="36" transform="rotate(0,728,944)"/><rect x="746" y="350" width="36" height="36" transform="rotate(0,764,368)"/><rect x="746" y="386" width="36" height="36" transform="rotate(0,764,404)"/><rect x="746" y="422" width="36" height="36" transform="rotate(0,764,440)"/><rect x="746" y="494" width="36" height="36" transform="rotate(0,764,512)"/><rect x="746" y="530" width="36" height="36" transform="rotate(0,764,548)"/><rect x="746" y="566" width="36" height="36" transform="rotate(0,764,584)"/><rect x="746" y="638" width="36" height="36" transform="rotate(0,764,656)"/><rect x="746" y="782" width="36" height="36" transform="rotate(0,764,800)"/><rect x="746" y="818" width="36" height="36" transform="rotate(0,764,836)"/><rect x="782" y="350" width="36" height="36" transform="rotate(0,800,368)"/><rect x="782" y="386" width="36" height="36" transform="rotate(0,800,404)"/><rect x="782" y="458" width="36" height="36" transform="rotate(0,800,476)"/><rect x="782" y="494" width="36" height="36" transform="rotate(0,800,512)"/><rect x="782" y="530" width="36" height="36" transform="rotate(0,800,548)"/><rect x="782" y="638" width="36" height="36" transform="rotate(0,800,656)"/><rect x="782" y="674" width="36" height="36" transform="rotate(0,800,692)"/><rect x="782" y="710" width="36" height="36" transform="rotate(0,800,728)"/><rect x="782" y="746" width="36" height="36" transform="rotate(0,800,764)"/><rect x="782" y="782" width="36" height="36" transform="rotate(0,800,800)"/><rect x="782" y="818" width="36" height="36" transform="rotate(0,800,836)"/><rect x="818" y="386" width="36" height="36" transform="rotate(0,836,404)"/><rect x="818" y="422" width="36" height="36" transform="rotate(0,836,440)"/><rect x="818" y="530" width="36" height="36" transform="rotate(0,836,548)"/><rect x="818" y="566" width="36" height="36" transform="rotate(0,836,584)"/><rect x="818" y="746" width="36" height="36" transform="rotate(0,836,764)"/><rect x="818" y="782" width="36" height="36" transform="rotate(0,836,800)"/><rect x="818" y="818" width="36" height="36" transform="rotate(0,836,836)"/><rect x="818" y="854" width="36" height="36" transform="rotate(0,836,872)"/><rect x="854" y="350" width="36" height="36" transform="rotate(0,872,368)"/><rect x="854" y="386" width="36" height="36" transform="rotate(0,872,404)"/><rect x="854" y="494" width="36" height="36" transform="rotate(0,872,512)"/><rect x="854" y="566" width="36" height="36" transform="rotate(0,872,584)"/><rect x="854" y="638" width="36" height="36" transform="rotate(0,872,656)"/><rect x="854" y="782" width="36" height="36" transform="rotate(0,872,800)"/><rect x="854" y="926" width="36" height="36" transform="rotate(0,872,944)"/><rect x="890" y="350" width="36" height="36" transform="rotate(0,908,368)"/><rect x="890" y="386" width="36" height="36" transform="rotate(0,908,404)"/><rect x="890" y="422" width="36" height="36" transform="rotate(0,908,440)"/><rect x="890" y="458" width="36" height="36" transform="rotate(0,908,476)"/><rect x="890" y="530" width="36" height="36" transform="rotate(0,908,548)"/><rect x="890" y="602" width="36" height="36" transform="rotate(0,908,620)"/><rect x="890" y="638" width="36" height="36" transform="rotate(0,908,656)"/><rect x="890" y="674" width="36" height="36" transform="rotate(0,908,692)"/><rect x="890" y="710" width="36" height="36" transform="rotate(0,908,728)"/><rect x="890" y="782" width="36" height="36" transform="rotate(0,908,800)"/><rect x="890" y="818" width="36" height="36" transform="rotate(0,908,836)"/><rect x="890" y="890" width="36" height="36" transform="rotate(0,908,908)"/><rect x="926" y="350" width="36" height="36" transform="rotate(0,944,368)"/><rect x="926" y="530" width="36" height="36" transform="rotate(0,944,548)"/><rect x="926" y="602" width="36" height="36" transform="rotate(0,944,620)"/><rect x="926" y="638" width="36" height="36" transform="rotate(0,944,656)"/><rect x="926" y="710" width="36" height="36" transform="rotate(0,944,728)"/><rect x="926" y="746" width="36" height="36" transform="rotate(0,944,764)"/><rect x="926" y="890" width="36" height="36" transform="rotate(0,944,908)"/><rect x="926" y="926" width="36" height="36" transform="rotate(0,944,944)"/></clipPath><clipPath id="clip-path-corners-square-color-0-0"><rect x="62" y="62" width="36" height="36" transform="rotate(0,80,80)"/><rect x="62" y="98" width="36" height="36" transform="rotate(0,80,116)"/><rect x="62" y="134" width="36" height="36" transform="rotate(0,80,152)"/><rect x="62" y="170" width="36" height="36" transform="rotate(0,80,188)"/><rect x="62" y="206" width="36" height="36" transform="rotate(0,80,224)"/><rect x="62" y="242" width="36" height="36" transform="rotate(0,80,260)"/><rect x="62" y="278" width="36" height="36" transform="rotate(0,80,296)"/><rect x="98" y="62" width="36" height="36" transform="rotate(0,116,80)"/><rect x="98" y="278" width="36" height="36" transform="rotate(0,116,296)"/><rect x="134" y="62" width="36" height="36" transform="rotate(0,152,80)"/><rect x="134" y="278" width="36" height="36" transform="rotate(0,152,296)"/><rect x="170" y="62" width="36" height="36" transform="rotate(0,188,80)"/><rect x="170" y="278" width="36" height="36" transform="rotate(0,188,296)"/><rect x="206" y="62" width="36" height="36" transform="rotate(0,224,80)"/><rect x="206" y="278" width="36" height="36" transform="rotate(0,224,296)"/><rect x="242" y="62" width="36" height="36" transform="rotate(0,260,80)"/><rect x="242" y="278" width="36" height="36" transform="rotate(0,260,296)"/><rect x="278" y="62" width="36" height="36" transform="rotate(0,296,80)"/><rect x="278" y="98" width="36" height="36" transform="rotate(0,296,116)"/><rect x="278" y="134" width="36" height="36" transform="rotate(0,296,152)"/><rect x="278" y="170" width="36" height="36" transform="rotate(0,296,188)"/><rect x="278" y="206" width="36" height="36" transform="rotate(0,296,224)"/><rect x="278" y="242" width="36" height="36" transform="rotate(0,296,260)"/><rect x="278" y="278" width="36" height="36" transform="rotate(0,296,296)"/></clipPath><clipPath id="clip-path-corners-dot-color-0-0"><rect x="134" y="134" width="36" height="36" transform="rotate(0,152,152)"/><rect x="134" y="170" width="36" height="36" transform="rotate(0,152,188)"/><rect x="134" y="206" width="36" height="36" transform="rotate(0,152,224)"/><rect x="170" y="134" width="36" height="36" transform="rotate(0,188,152)"/><rect x="170" y="170" width="36" height="36" transform="rotate(0,188,188)"/><rect x="170" y="206" width="36" height="36" transform="rotate(0,188,224)"/><rect x="206" y="134" width="36" height="36" transform="rotate(0,224,152)"/><rect x="206" y="170" width="36" height="36" transform="rotate(0,224,188)"/><rect x="206" y="206" width="36" height="36" transform="rotate(0,224,224)"/></clipPath><clipPath id="clip-path-corners-square-color-1-0"><rect x="710" y="62" width="36" height="36" transform="rotate(0,728,80)"/><rect x="710" y="98" width="36" height="36" transform="rotate(0,728,116)"/><rect x="710" y="134" width="36" height="36" transform="rotate(0,728,152)"/><rect x="710" y="170" width="36" height="36" transform="rotate(0,728,188)"/><rect x="710" y="206" width="36" height="36" transform="rotate(0,728,224)"/><rect x="710" y="242" width="36" height="36" transform="rotate(0,728,260)"/><rect x="710" y="278" width="36" height="36" transform="rotate(0,728,296)"/><rect x="746" y="62" width="36" height="36" transform="rotate(0,764,80)"/><rect x="746" y="278" width="36" height="36" transform="rotate(0,764,296)"/><rect x="782" y="62" width="36" height="36" transform="rotate(0,800,80)"/><rect x="782" y="278" width="36" height="36" transform="rotate(0,800,296)"/><rect x="818" y="62" width="36" height="36" transform="rotate(0,836,80)"/><rect x="818" y="278" width="36" height="36" transform="rotate(0,836,296)"/><rect x="854" y="62" width="36" height="36" transform="rotate(0,872,80)"/><rect x="854" y="278" width="36" height="36" transform="rotate(0,872,296)"/><rect x="890" y="62" width="36" height="36" transform="rotate(0,908,80)"/><rect x="890" y="278" width="36" height="36" transform="rotate(0,908,296)"/><rect x="926" y="62" width="36" height="36" transform="rotate(0,944,80)"/><rect x="926" y="98" width="36" height="36" transform="rotate(0,944,116)"/><rect x="926" y="134" width="36" height="36" transform="rotate(0,944,152)"/><rect x="926" y="170" width="36" height="36" transform="rotate(0,944,188)"/><rect x="926" y="206" width="36" height="36" transform="rotate(0,944,224)"/><rect x="926" y="242" width="36" height="36" transform="rotate(0,944,260)"/><rect x="926" y="278" width="36" height="36" transform="rotate(0,944,296)"/></clipPath><clipPath id="clip-path-corners-dot-color-1-0"><rect x="782" y="134" width="36" height="36" transform="rotate(0,800,152)"/><rect x="782" y="170" width="36" height="36" transform="rotate(0,800,188)"/><rect x="782" y="206" width="36" height="36" transform="rotate(0,800,224)"/><rect x="818" y="134" width="36" height="36" transform="rotate(0,836,152)"/><rect x="818" y="170" width="36" height="36" transform="rotate(0,836,188)"/><rect x="818" y="206" width="36" height="36" transform="rotate(0,836,224)"/><rect x="854" y="134" width="36" height="36" transform="rotate(0,872,152)"/><rect x="854" y="170" width="36" height="36" transform="rotate(0,872,188)"/><rect x="854" y="206" width="36" height="36" transform="rotate(0,872,224)"/></clipPath><clipPath id="clip-path-corners-square-color-0-1"><rect x="62" y="710" width="36" height="36" transform="rotate(0,80,728)"/><rect x="62" y="746" width="36" height="36" transform="rotate(0,80,764)"/><rect x="62" y="782" width="36" height="36" transform="rotate(0,80,800)"/><rect x="62" y="818" width="36" height="36" transform="rotate(0,80,836)"/><rect x="62" y="854" width="36" height="36" transform="rotate(0,80,872)"/><rect x="62" y="890" width="36" height="36" transform="rotate(0,80,908)"/><rect x="62" y="926" width="36" height="36" transform="rotate(0,80,944)"/><rect x="98" y="710" width="36" height="36" transform="rotate(0,116,728)"/><rect x="98" y="926" width="36" height="36" transform="rotate(0,116,944)"/><rect x="134" y="710" width="36" height="36" transform="rotate(0,152,728)"/><rect x="134" y="926" width="36" height="36" transform="rotate(0,152,944)"/><rect x="170" y="710" width="36" height="36" transform="rotate(0,188,728)"/><rect x="170" y="926" width="36" height="36" transform="rotate(0,188,944)"/><rect x="206" y="710" width="36" height="36" transform="rotate(0,224,728)"/><rect x="206" y="926" width="36" height="36" transform="rotate(0,224,944)"/><rect x="242" y="710" width="36" height="36" transform="rotate(0,260,728)"/><rect x="242" y="926" width="36" height="36" transform="rotate(0,260,944)"/><rect x="278" y="710" width="36" height="36" transform="rotate(0,296,728)"/><rect x="278" y="746" width="36" height="36" transform="rotate(0,296,764)"/><rect x="278" y="782" width="36" height="36" transform="rotate(0,296,800)"/><rect x="278" y="818" width="36" height="36" transform="rotate(0,296,836)"/><rect x="278" y="854" width="36" height="36" transform="rotate(0,296,872)"/><rect x="278" y="890" width="36" height="36" transform="rotate(0,296,908)"/><rect x="278" y="926" width="36" height="36" transform="rotate(0,296,944)"/></clipPath><clipPath id="clip-path-corners-dot-color-0-1"><rect x="134" y="782" width="36" height="36" transform="rotate(0,152,800)"/><rect x="134" y="818" width="36" height="36" transform="rotate(0,152,836)"/><rect x="134" y="854" width="36" height="36" transform="rotate(0,152,872)"/><rect x="170" y="782" width="36" height="36" transform="rotate(0,188,800)"/><rect x="170" y="818" width="36" height="36" transform="rotate(0,188,836)"/><rect x="170" y="854" width="36" height="36" transform="rotate(0,188,872)"/><rect x="206" y="782" width="36" height="36" transform="rotate(0,224,800)"/><rect x="206" y="818" width="36" height="36" transform="rotate(0,224,836)"/><rect x="206" y="854" width="36" height="36" transform="rotate(0,224,872)"/></clipPath></defs><rect x="0" y="0" height="1024" width="1024" clip-path="url('#clip-path-background-color')" fill="#ffffff"/><rect x="62" y="62" height="900" width="900" clip-path="url('#clip-path-dot-color')" fill="#000000"/><rect x="62" y="62" height="252" width="252" clip-path="url('#clip-path-corners-square-color-0-0')" fill="#000000"/><rect x="134" y="134" height="108" width="108" clip-path="url('#clip-path-corners-dot-color-0-0')" fill="#000000"/><rect x="710" y="62" height="252" width="252" clip-path="url('#clip-path-corners-square-color-1-0')" fill="#000000"/><rect x="782" y="134" height="108" width="108" clip-path="url('#clip-path-corners-dot-color-1-0')" fill="#000000"/><rect x="62" y="710" height="252" width="252" clip-path="url('#clip-path-corners-square-color-0-1')" fill="#000000"/><rect x="134" y="782" height="108" width="108" clip-path="url('#clip-path-corners-dot-color-0-1')" fill="#000000"/></svg>