<?xml version="1.0" encoding="UTF-8" standalone="no"?>
<svg
   xmlns:dc="http://purl.org/dc/elements/1.1/"
   xmlns:cc="http://creativecommons.org/ns#"
   xmlns:rdf="http://www.w3.org/1999/02/22-rdf-syntax-ns#"
   xmlns:svg="http://www.w3.org/2000/svg"
   xmlns="http://www.w3.org/2000/svg"
   xmlns:sodipodi="http://sodipodi.sourceforge.net/DTD/sodipodi-0.dtd"
   xmlns:inkscape="http://www.inkscape.org/namespaces/inkscape"
   width="137.35641mm"
   height="86.996758mm"
   viewBox="0 0 137.35642 86.996757"
   version="1.1"
   id="svg8"
   inkscape:version="1.0.2 (e86c870879, 2021-01-15)"
   sodipodi:docname="sign.svg">
  <defs
     id="defs2">
    <inkscape:path-effect
       effect="skeletal"
       id="path-effect12"
       is_visible="true"
       lpeversion="1"
       pattern="M 0,5 C 0,2.24 2.24,0 5,0 7.76,0 10,2.24 10,5 10,7.76 7.76,10 5,10 2.24,10 0,7.76 0,5 Z"
       copytype="single_stretched"
       prop_scale="3.00518"
       scale_y_rel="false"
       spacing="0"
       normal_offset="0"
       tang_offset="0"
       prop_units="false"
       vertical_pattern="false"
       hide_knot="false"
       fuse_tolerance="0" />
  </defs>
  <sodipodi:namedview
     id="base"
     pagecolor="#ffffff"
     bordercolor="#666666"
     borderopacity="1.0"
     inkscape:pageopacity="0.0"
     inkscape:pageshadow="2"
     inkscape:zoom="0.98994949"
     inkscape:cx="282.34038"
     inkscape:cy="179.5474"
     inkscape:document-units="mm"
     inkscape:current-layer="layer1"
     inkscape:document-rotation="0"
     showgrid="false"
     fit-margin-top="0"
     fit-margin-left="0"
     fit-margin-right="0"
     fit-margin-bottom="0"
     inkscape:window-width="1366"
     inkscape:window-height="736"
     inkscape:window-x="0"
     inkscape:window-y="0"
     inkscape:window-maximized="1" />
  <metadata
     id="metadata5">
    <rdf:RDF>
      <cc:Work
         rdf:about="">
        <dc:format>image/svg+xml</dc:format>
        <dc:type
           rdf:resource="http://purl.org/dc/dcmitype/StillImage" />
        <dc:title></dc:title>
      </cc:Work>
    </rdf:RDF>
  </metadata>
  <g
     inkscape:label="Layer 1"
     inkscape:groupmode="layer"
     id="layer1"
     transform="translate(-27.620954,-89.897568)">
    <path
       style="fill:#000000;stroke-width:30;stroke-linecap:round;paint-order:stroke markers fill"
       id="path102"
       d="m 30.023211,115.92212 c 2.075985,-2.84528 4.297081,-5.57601 6.544488,-8.2863 1.64418,-1.67741 2.855685,-3.98704 4.897714,-5.24389 0.09802,-0.0122 0.197675,-0.0579 0.294163,-0.0365 0.09228,0.0204 0.145224,0.35652 0.14822,0.36299 0.542636,1.17214 0.345874,0.26835 0.89771,2.00438 0.240602,0.75691 0.411523,1.53425 0.617306,2.3014 1.359854,8.42862 2.184089,16.94144 2.805188,25.45414 0.748745,8.63625 1.164143,17.28322 1.256851,25.94938 0.0024,4.69557 0.33754,9.38424 1.084462,14.01947 0.154894,1.09677 0.409175,2.17184 0.504201,3.27545 0.145853,1.69349 2.540805,1.48723 2.39495,-0.20627 v 0 c -0.100231,-1.16347 -0.354335,-2.29782 -0.526054,-3.45228 -0.730564,-4.51667 -1.050867,-9.08649 -1.05388,-13.66212 -0.09347,-8.71595 -0.510465,-17.41277 -1.263077,-26.09866 -0.633008,-8.6662 -1.462997,-17.33679 -2.883621,-25.91194 -0.59769,-2.15778 -1.427037,-6.797077 -4.672265,-6.33859 -0.322085,0.0455 -0.612928,0.21807 -0.919383,0.32711 -2.197913,1.48742 -3.699624,3.75302 -5.432899,5.72161 -2.295011,2.76781 -4.562481,5.55725 -6.679312,8.46525 -0.958424,1.40379 1.026814,2.75919 1.985238,1.35541 z" />
    <path
       style="fill:#000000;stroke-width:30;stroke-linecap:round;paint-order:stroke markers fill"
       id="path104"
       d="m 30.577402,123.41031 c 1.487188,-3.84324 3.551504,-7.41111 5.793094,-10.85446 2.594694,-3.68033 5.361929,-7.35725 8.908841,-10.18673 0.560903,-0.44744 1.165779,-0.83679 1.748679,-1.2552 2.916002,-1.788947 6.256967,-2.621121 9.676085,-2.406674 0.686956,0.04308 1.36582,0.172044 2.048715,0.258051 2.951305,0.603966 5.916571,2.060363 7.35844,4.877013 0.321107,0.62726 0.481806,1.32445 0.722711,1.98668 0.129427,0.89439 0.330221,1.78133 0.388269,2.68317 0.441602,6.86038 -1.768885,14.08784 -3.750468,20.56768 -2.422548,6.58921 -4.985175,13.35414 -9.327067,18.96703 -0.778527,1.0064 -1.674216,1.91644 -2.511326,2.87465 -0.949173,0.81479 -1.852008,1.6869 -2.847509,2.44439 -3.260729,2.48112 -7.129718,4.53995 -11.125657,5.52854 -0.663773,0.16421 -1.347431,0.23379 -2.021146,0.35068 -1.693546,0.10152 -3.722114,0.0689 -4.812951,-1.48245 -0.537122,-0.76387 -0.56555,-1.34772 -0.77309,-2.25453 -0.178219,-3.5264 1.142244,-6.94117 2.987426,-9.90046 0.445184,-0.71395 0.965205,-1.37843 1.447761,-2.06766 2.334434,-2.74531 5.1788,-5.42414 8.826437,-6.20689 0.51236,-0.10994 1.041846,-0.11371 1.562778,-0.17056 0.462915,0.0524 0.937303,0.0423 1.388748,0.1573 3.428936,0.87363 4.774495,5.13797 6.042347,7.93757 2.321069,5.09469 4.268139,10.42405 7.207979,15.21458 0.459867,0.74935 0.984029,1.45731 1.476042,2.18595 1.852287,2.25477 3.880485,4.60781 6.591936,5.85807 0.349604,0.16119 0.72157,0.26864 1.082347,0.40295 0.910129,0.13642 1.408441,0.3182 2.329858,0.01 2.29287,-0.76793 3.693522,-3.12347 4.932556,-5.01134 2.754515,-4.81628 4.146867,-10.21404 5.379296,-15.57769 1.013801,-5.02185 1.812491,-10.08096 2.881045,-15.09238 0.559734,-1.84747 0.711572,-3.88037 1.622382,-5.61302 0.240428,-0.4575 0.132939,-0.42953 0.399108,-0.42265 1.341952,-1.04324 -0.13342,-2.94104 -1.475373,-1.8978 v 0 c -0.219974,0.20035 -0.470174,0.37187 -0.659973,0.60102 -1.385008,1.67214 -1.588903,4.83867 -2.237163,6.83136 -1.065142,4.99933 -1.867187,10.04504 -2.872926,15.05568 -1.16709,5.08986 -2.470635,10.21771 -5.051406,14.8047 -0.78377,1.21732 -1.985416,3.2359 -3.341222,3.95593 -0.411302,0.21843 -0.641117,0.12831 -1.09443,0.094 -2.736242,-0.92826 -4.713705,-3.16994 -6.495986,-5.34677 -0.456822,-0.67172 -0.944581,-1.32341 -1.37046,-2.01516 -2.910646,-4.72782 -4.814758,-10.00324 -7.115069,-15.03131 -1.708514,-3.74929 -3.473961,-8.367 -8.007695,-9.33671 -0.622735,-0.13321 -1.269743,-0.0999 -1.904603,-0.14981 -0.667126,0.0889 -1.345863,0.11409 -2.001377,0.26661 -4.152169,0.96612 -7.4191,3.94314 -10.068073,7.12345 -0.52781,0.76243 -1.097229,1.49766 -1.583683,2.28713 -1.748549,2.83771 -3.14544,6.18842 -3.304054,9.55824 -0.033,0.70114 0.06639,1.40227 0.09958,2.10342 0.426896,1.50622 0.443789,2.20106 1.477666,3.42199 1.718005,2.02884 4.390516,2.27542 6.856189,2.07413 0.771947,-0.14088 1.555023,-0.23055 2.315828,-0.42267 4.305121,-1.08706 8.476928,-3.30624 11.980637,-6.00416 1.081171,-0.83253 2.059715,-1.79045 3.089579,-2.68567 0.894362,-1.03238 1.850152,-2.01458 2.68308,-3.09714 4.475234,-5.81655 7.147435,-12.79743 9.640557,-19.61988 2.059499,-6.7494 4.39618,-14.49918 3.826938,-21.6383 -0.08537,-1.07065 -0.347245,-2.11984 -0.52088,-3.17977 -0.340376,-0.84504 -0.584952,-1.73532 -1.021133,-2.53513 -0.365716,-0.67059 -0.854255,-1.27262 -1.365132,-1.84046 -2.024261,-2.249977 -4.713068,-3.472538 -7.647927,-4.009434 -0.781962,-0.09185 -1.559758,-0.232541 -2.345923,-0.275581 -3.925053,-0.214877 -7.746548,0.784335 -11.075382,2.861275 -0.642915,0.466244 -1.309423,0.90158 -1.928723,1.39873 -3.709279,2.97758 -6.623311,6.81724 -9.337495,10.6823 -2.31332,3.56367 -4.450941,7.25125 -5.990279,11.22508 -0.664327,1.56456 1.548273,2.50408 2.212611,0.9395 z" />
    <circle
       id="path106"
       style="fill:#000000;stroke:#000000;stroke-width:0.264583"
       cx="136.81758"
       cy="51.509171"
       r="2.4014204"
       transform="rotate(34.323043)" />
    <path
       style="fill:#000000;stroke-width:30;stroke-linecap:round;paint-order:stroke markers fill"
       id="path112"
       d="m 119.67949,120.96059 c -5.25101,0.70249 -10.38917,2.17825 -15.44368,3.73463 -3.33473,1.03586 -6.610435,2.26798 -9.599917,4.09352 -1.537071,0.93862 -1.762931,1.17596 -3.140582,2.25265 -1.590783,1.46264 -3.385835,3.08875 -3.989722,5.25683 -0.08966,0.32193 -0.111584,0.65897 -0.167394,0.98845 0.04907,0.37031 0.03347,0.75514 0.147212,1.11096 0.757351,2.36901 3.528723,3.07405 5.618165,3.67716 3.934186,0.81996 7.978758,0.91095 11.978638,1.17212 3.07785,0.1247 6.18759,0.30234 9.07864,1.4401 1.26766,0.6423 2.44071,1.54515 2.95763,2.90435 0.59894,2.17978 -0.6743,3.3961 -2.16011,4.80495 -3.96775,3.15226 -8.93242,4.25182 -13.78936,5.21406 -4.117572,0.73428 -8.274328,1.20156 -12.45081,1.39288 -1.697965,0.078 -1.587719,2.47927 0.110246,2.4013 v 0 c 4.296583,-0.19769 8.573139,-0.67815 12.808684,-1.43637 5.31548,-1.05746 10.71048,-2.3251 14.99827,-5.84967 0.47279,-0.47003 0.98859,-0.90044 1.41839,-1.41007 1.4759,-1.75004 1.99455,-3.8885 1.274,-6.06435 -0.92176,-2.0261 -2.29266,-3.23487 -4.3021,-4.19995 -3.1337,-1.18852 -6.45247,-1.49821 -9.78685,-1.59594 -3.83074,-0.25012 -7.701755,-0.34115 -11.476064,-1.08507 -1.335715,-0.37554 -3.399129,-0.71544 -4.044574,-2.13889 0.172403,-1.98364 1.912613,-3.41652 3.26122,-4.69187 3.658239,-2.88461 7.486378,-4.63262 11.964408,-5.93995 4.89122,-1.50903 9.86378,-2.93683 14.94246,-3.63692 1.69347,-0.14622 1.48667,-2.54113 -0.2068,-2.39491 z" />
    <g
       id="g154"
       transform="matrix(1.0425167,-0.11212574,0.11212574,1.0425167,-20.8892,8.2019391)"
       style="stroke-width:0.953717">
      <path
         style="fill:#000000;stroke-width:28.6115;stroke-linecap:round;paint-order:stroke markers fill"
         id="path114"
         d="m 148.11608,95.635707 c -0.15273,5.548463 -0.14623,11.099893 -0.0896,16.649633 0.21367,8.55513 0.23185,17.11305 0.70772,25.65913 0.40208,5.40064 0.81965,10.80026 0.91144,16.21659 0.008,1.78455 0.0284,3.5706 -0.004,5.35502 -0.03,1.6995 2.37343,1.74195 2.40345,0.0425 v 0 c 0.0312,-1.8123 0.0138,-3.62606 0.004,-5.43848 -0.0935,-5.44726 -0.50796,-10.87803 -0.91482,-16.30943 -0.47519,-8.5096 -0.48946,-17.03123 -0.70412,-25.54985 -0.0563,-5.49515 -0.0617,-10.9918 0.0857,-16.485769 0.0985,-1.696903 -2.30127,-1.836206 -2.39978,-0.139304 z" />
      <path
         style="fill:#000000;stroke-width:28.6115;stroke-linecap:round;paint-order:stroke markers fill"
         id="path148"
         d="m 151.98426,115.21898 c -2.16087,0.88998 -4.20903,2.02354 -6.24017,3.17223 -3.14958,1.86459 -6.06045,4.13137 -8.72804,6.63467 -0.57305,0.53775 -1.11992,1.10273 -1.67989,1.6541 -2.43709,2.56509 -4.5804,5.43265 -6.21638,8.57714 -0.30317,0.58273 -0.56713,1.18504 -0.8507,1.77756 -0.92483,2.15481 -1.65007,4.40411 -1.99228,6.72918 -0.18826,1.27905 -0.1764,1.71626 -0.23131,2.97891 -5.3e-4,1.90697 0.0384,3.88652 0.66361,5.71251 0.10056,0.29366 0.23664,0.57393 0.35496,0.8609 1.02225,2.03912 2.81834,2.7069 4.88223,3.30463 2.53174,0.63153 5.11141,0.98022 7.71541,1.0807 3.08938,0.0206 6.12871,-0.58434 9.13016,-1.25171 3.49136,-0.79232 6.77545,-2.21695 10.02371,-3.6846 1.67564,-0.74604 0.87009,-0.38433 2.41715,-1.08402 1.72195,-0.77881 0.62054,-3.21401 -1.10141,-2.4352 v 0 c -1.53724,0.69531 -0.73199,0.33368 -2.41633,1.08365 -3.08132,1.39256 -6.19236,2.75578 -9.50389,3.51134 -2.77821,0.61925 -5.59034,1.19132 -8.44991,1.1897 -2.39014,-0.0854 -4.75553,-0.41267 -7.08144,-0.97995 -1.1816,-0.33104 -2.51246,-0.63252 -3.15651,-1.78133 -0.75707,-1.69436 -0.82456,-3.58447 -0.80734,-5.41573 0.0429,-1.0917 0.0324,-1.50513 0.18993,-2.60863 0.29886,-2.0938 0.9509,-4.11833 1.77584,-6.06024 0.25611,-0.53956 0.49392,-1.08819 0.76832,-1.61867 1.51357,-2.92605 3.50278,-5.59441 5.76262,-7.98291 0.52908,-0.52233 1.04562,-1.05767 1.58723,-1.567 2.52482,-2.37438 5.27887,-4.52842 8.26061,-6.29894 1.9259,-1.09064 3.86744,-2.16811 5.91526,-3.01629 1.75504,-0.70105 0.76361,-3.18305 -0.99144,-2.482 z" />
    </g>
  </g>
</svg>
